# Blender 3.3.1
# www.blender.org
mtllib bed_001.mtl
o bed_001
v 0.457830 0.520477 -0.541376
v 0.524488 0.469901 -0.541376
v -0.457826 0.520477 -0.464834
v -0.528530 0.465462 -0.464835
v 0.552620 0.296130 -0.280833
v -0.561718 0.237971 -0.465614
v 0.110667 0.525815 -0.492472
v -0.084850 0.545624 -0.465327
v -0.300903 0.525265 -0.467816
v 0.461800 0.527219 -0.281613
v 0.528460 0.476642 -0.281613
v -0.457826 0.520477 -0.205071
v -0.528530 0.465462 -0.205071
v 0.552410 0.296475 -0.543720
v -0.561718 0.237971 -0.203640
v 0.110667 0.525815 -0.232708
v -0.084850 0.530325 -0.216986
v -0.283752 0.525265 -0.208619
v -0.296867 0.511709 -0.565425
v -0.240956 0.529353 -0.598263
v -0.118757 0.534147 -0.608193
v 0.208553 0.527165 -0.633607
v 0.251646 0.482886 -0.962146
v -0.294499 0.498369 -0.580598
v -0.322238 0.531576 -1.042841
v -0.319362 0.541425 -1.043183
v 0.289127 0.525093 -0.636228
v 0.359395 0.522961 -0.644692
v -0.288124 0.544327 -0.673844
v -0.213437 0.593707 -0.694152
v -0.108498 0.617509 -0.764889
v 0.216724 0.619920 -0.739709
v 0.319056 0.536795 -0.753054
v -0.120942 0.622827 -0.877354
v 0.194869 0.604243 -0.888517
v 0.251295 0.572499 -0.932114
v 0.294886 0.545270 -0.940900
v -0.318517 0.537326 -0.986655
v -0.323940 0.515351 -0.985976
v 0.175096 0.582368 -1.029639
v 0.247064 0.572884 -1.009108
v 0.301863 0.563474 -0.997007
v -0.275690 0.531683 -1.041141
v -0.264335 0.552974 -1.007583
v 0.239400 0.568771 -1.052151
v -0.250937 0.502148 -0.601245
v -0.123356 0.508928 -0.612456
v 0.204578 0.502787 -0.643605
v 0.287774 0.499658 -0.644337
v 0.355914 0.508428 -0.649627
v -0.242016 0.474013 -0.657933
v 0.289124 0.467348 -0.713372
v -0.296406 0.513511 -0.665515
v 0.314195 0.508610 -0.744579
v -0.269482 0.433421 -0.930118
v 0.296712 0.524416 -0.943713
v -0.286066 0.466206 -0.996389
v 0.263282 0.501320 -1.036375
v 0.307759 0.536941 -1.009658
v -0.279924 0.516315 -1.039886
v 0.245279 0.549227 -1.066630
v 0.307552 0.585076 -1.071548
v 0.312913 0.576787 -1.076783
v 0.333226 0.510601 -0.647217
v 0.335980 0.528856 -0.641199
v -0.295541 0.499635 -0.591296
v -0.297673 0.517520 -0.579369
v 0.298526 0.523146 -0.520189
v 0.300511 0.519934 -0.271035
v 0.529351 0.323031 -0.543720
v 0.529754 0.323031 -0.280833
v -0.556794 0.244569 0.944957
v 0.527681 0.316315 0.960089
v -0.523627 0.461197 0.961937
v -0.458500 0.513112 0.973612
v 0.526890 0.437067 0.964010
v 0.474749 0.504476 0.965903
v -0.552646 0.245614 -0.357629
v -0.523732 0.461636 -0.357630
v 0.528194 0.317317 -0.357630
v -0.457953 0.512973 -0.357630
v 0.457957 0.512973 -0.357630
v 0.523734 0.461636 -0.357630
v -0.554028 0.245266 0.076566
v -0.554718 0.245092 0.293664
v -0.555412 0.244917 0.510762
v -0.556103 0.244743 0.727860
v 0.526366 0.441162 0.743737
v 0.525838 0.445257 0.523464
v 0.525313 0.449352 0.303190
v 0.524786 0.453447 0.082917
v 0.524261 0.457541 -0.137356
v 0.527767 0.316482 0.740469
v 0.527852 0.316649 0.520849
v 0.527938 0.316816 0.301229
v 0.349075 0.513120 0.963815
v 0.052589 0.512973 -0.357630
v 0.528023 0.316983 0.081610
v 0.528109 0.317150 -0.138010
v 0.509796 -0.000000 -1.083385
v 0.540636 0.049331 -1.064641
v 0.525643 0.021993 -1.105311
v -0.525636 0.021993 -1.105311
v -0.540632 0.022141 -1.091740
v -0.509792 -0.000000 -1.083385
v 0.509696 0.313197 -1.091269
v 0.524713 0.313197 -1.077600
v 0.525660 0.298116 -1.106270
v 0.540636 0.270926 -1.065381
v -0.524709 0.313197 -1.077600
v -0.509689 0.313197 -1.091269
v -0.540632 0.298116 -1.092661
v -0.525656 0.298116 -1.106270
v 0.509796 0.000000 1.083382
v 0.540636 0.049331 1.064639
v 0.525641 0.021994 1.105309
v -0.525636 0.021994 1.105309
v -0.540631 0.022142 1.091737
v -0.509792 0.000000 1.083382
v 0.509696 0.313197 1.091267
v 0.524713 0.313197 1.077597
v 0.525660 0.298116 1.106267
v 0.540636 0.270927 1.065378
v -0.524709 0.313197 1.077597
v -0.509689 0.313197 1.091267
v -0.540631 0.298116 1.092659
v -0.525656 0.298116 1.106267
v 0.411571 0.236171 -0.976215
v -0.411567 0.236171 -0.976215
v 0.453602 0.498663 0.979840
v -0.453600 0.498663 0.979839
v 0.411571 0.236171 0.993926
v -0.411566 0.236171 0.993926
v 0.423233 0.454004 -1.070249
v 0.511268 0.454004 -0.982215
v 0.453643 0.498631 -0.973659
v -0.511264 0.454004 -0.982214
v -0.423229 0.454004 -1.070249
v -0.453639 0.498631 -0.973659
v 0.511268 0.294330 -0.982215
v 0.423233 0.294330 -1.070248
v 0.452315 0.259939 -1.014645
v -0.423229 0.294330 -1.070248
v -0.511264 0.294330 -0.982214
v -0.452311 0.259939 -1.014644
v 0.511268 0.454004 0.999925
v 0.423233 0.454004 1.087959
v -0.423229 0.454004 1.087959
v -0.511264 0.454004 0.999925
v 0.423233 0.294331 1.087960
v 0.511268 0.294331 0.999925
v 0.452315 0.259940 1.032355
v -0.511264 0.294331 0.999925
v -0.423229 0.294330 1.087959
v -0.452311 0.259940 1.032355
v -0.553337 0.245440 -0.140532
v -0.523644 0.461270 0.742009
v -0.523661 0.461343 0.522081
v -0.523678 0.461417 0.302154
v -0.523696 0.461490 0.082226
v -0.523713 0.461563 -0.137702
v -0.458410 0.513089 0.751738
v -0.458317 0.513066 0.529865
v -0.458227 0.513043 0.307991
v -0.458136 0.513019 0.086117
v -0.458044 0.512996 -0.135756
v 0.471951 0.505892 0.745315
v 0.469151 0.507308 0.524726
v 0.466353 0.508724 0.304137
v 0.463555 0.510141 0.083548
v 0.460755 0.511557 -0.137041
v 0.299661 0.513095 0.743574
v 0.250247 0.513071 0.523333
v 0.200831 0.513046 0.303092
v 0.151417 0.513022 0.082851
v 0.102003 0.512998 -0.137389
v 0.549163 0.296250 0.960089
v 0.550289 0.296329 -0.357630
v 0.549354 0.296263 0.740469
v 0.549542 0.296276 0.520849
v 0.549727 0.296289 0.301229
v 0.549915 0.296302 0.081610
v 0.550101 0.296315 -0.138010
v 0.553299 0.228780 -0.280833
v 0.552894 0.228780 -0.543720
v 0.551226 0.222065 0.960089
v 0.551739 0.223067 -0.357630
v 0.551312 0.222232 0.740469
v 0.551397 0.222399 0.520849
v 0.551483 0.222566 0.301229
v 0.551568 0.222733 0.081610
v 0.551654 0.222900 -0.138010
v 0.540636 0.022141 -1.091740
v 0.540635 0.298116 -1.092661
v 0.540636 0.022142 1.091737
v 0.540636 0.298116 1.092659
v 0.510789 0.049331 -1.064641
v 0.510789 0.270926 -1.065381
v 0.510789 0.049331 1.064639
v 0.510789 0.270927 1.065378
vn 0.9874 0.1581 -0.0000
vn 0.9702 0.2424 0.0007
vn 0.9702 0.2424 0.0006
vn 0.9874 0.1583 -0.0006
vn -0.9388 0.3445 -0.0006
vn -0.9388 0.3445 -0.0000
vn -0.2455 0.9694 0.0006
vn 0.0005 0.9995 0.0312
vn 0.0004 0.9995 0.0312
vn 0.0449 0.9988 0.0183
vn 0.0449 0.9988 0.0184
vn -0.0464 0.9988 0.0181
vn -0.9895 0.1444 -0.0000
vn 0.2105 0.9775 -0.0156
vn 0.9449 0.3268 -0.0178
vn 0.0059 1.0000 0.0003
vn 0.0058 1.0000 0.0002
vn 0.0220 0.8370 0.5467
vn -0.0534 0.9622 0.2672
vn -0.2986 0.9442 0.1391
vn 0.0616 0.8539 0.5167
vn 0.0297 0.7472 0.6640
vn 0.1551 0.9553 0.2518
vn 0.0095 0.8232 0.5676
vn -0.8970 -0.4327 0.0903
vn -0.9952 0.0969 -0.0157
vn -0.5300 0.7893 0.3100
vn -0.6510 0.7582 0.0352
vn 0.0628 -0.2990 0.9522
vn 0.0418 -0.7621 0.6461
vn 0.0642 -0.7313 0.6790
vn 0.0483 -0.3344 0.9412
vn 0.1115 -0.3193 0.9411
vn 0.4496 -0.8337 0.3207
vn 0.0635 -0.3270 0.9429
vn -0.6296 0.7766 0.0211
vn -0.8963 -0.4353 0.0847
vn 0.0572 -0.7468 0.6626
vn -0.0646 -0.9884 0.1375
vn 0.1032 -0.9878 0.1169
vn 0.4532 0.8714 0.1875
vn 0.5750 0.8177 -0.0290
vn 0.7372 0.6691 -0.0938
vn -0.1924 0.9542 -0.2289
vn -0.0044 0.9388 -0.3445
vn -0.0835 0.7103 -0.6989
vn -0.0608 0.6584 -0.7502
vn 0.4742 0.8774 -0.0722
vn 0.7237 0.6891 -0.0370
vn 0.8427 -0.5289 -0.1002
vn 0.8311 -0.5328 -0.1593
vn -0.0633 -0.9976 -0.0280
vn -0.0809 0.9839 -0.1592
vn 0.0346 0.9814 -0.1886
vn 0.1079 -0.9928 -0.0522
vn 0.2144 0.9767 -0.0062
vn -0.0252 -0.8235 -0.5668
vn 0.2521 0.9479 0.1950
vn 0.0856 -0.8245 -0.5594
vn -0.0791 0.9105 -0.4059
vn -0.1385 0.9827 -0.1232
vn 0.8692 -0.4913 -0.0564
vn 0.9717 0.1632 0.1708
vn -0.0286 -0.4254 -0.9045
vn -0.0282 -0.4054 -0.9137
vn 0.2113 -0.2441 0.9465
vn 0.1646 -0.6684 0.7253
vn 0.0807 -0.2529 0.9641
vn -0.9859 -0.1651 0.0265
vn 0.3177 -0.7471 0.5839
vn -0.3241 -0.9436 0.0675
vn -0.9666 0.2533 0.0381
vn -0.6957 -0.4803 -0.5340
vn 0.9599 0.2229 0.1702
vn -0.3271 0.4546 -0.8284
vn 0.4499 -0.6331 -0.6299
vn 0.7718 -0.5921 -0.2318
vn 0.0038 0.8423 0.5390
vn 0.9021 -0.2075 -0.3784
vn 0.4976 -0.4306 0.7530
vn 0.9875 0.1577 -0.0000
vn 0.9702 0.2423 0.0007
vn 0.1302 0.9915 0.0039
vn 0.0015 1.0000 0.0009
vn 0.0031 1.0000 0.0006
vn 0.1576 0.9875 0.0026
vn 0.1927 0.9813 0.0018
vn 0.0047 1.0000 0.0003
vn 0.0062 1.0000 -0.0001
vn 0.2391 0.9710 0.0009
vn 0.0084 1.0000 -0.0006
vn 0.0077 1.0000 -0.0004
vn -0.0627 0.9980 -0.0001
vn -0.0609 0.9981 -0.0034
vn -0.0710 0.9975 -0.0001
vn -0.0666 0.9978 -0.0027
vn -0.0818 0.9966 -0.0001
vn -0.0760 0.9971 -0.0015
vn -0.9414 0.3372 -0.0011
vn -0.0851 0.9964 -0.0003
vn -0.9417 0.3363 -0.0008
vn 0.9484 0.3170 0.0011
vn 0.9520 0.3060 0.0009
vn -0.9391 0.3437 -0.0011
vn -0.9889 0.1483 -0.0014
vn -0.9887 0.1499 -0.0014
vn -0.9388 0.3445 -0.0011
vn 0.9429 0.3331 0.0015
vn 0.1187 0.9929 0.0044
vn 0.9447 0.3278 0.0014
vn 0.9877 0.1565 -0.0006
vn 0.9591 0.2830 0.0004
vn 0.9608 0.2771 0.0003
vn 0.9877 0.1563 -0.0001
vn 0.3027 0.9531 -0.0005
vn 0.3439 0.9390 -0.0014
vn 0.0008 1.0000 0.0012
vn -0.0143 0.9999 0.0001
vn -0.0143 0.9999 -0.0001
vn -0.9985 0.0546 -0.0068
vn -0.9985 0.0546 0.0068
vn -0.9947 -0.1023 -0.0066
vn -0.9947 -0.1023 0.0066
vn 0.9453 0.3238 -0.0404
vn 0.0143 0.9999 -0.0001
vn 0.0143 0.9999 0.0001
vn 0.9453 0.3238 0.0404
vn 0.0123 -0.0754 -0.9971
vn -0.0123 -0.0754 -0.9971
vn -0.0127 0.0481 -0.9988
vn 0.0127 0.0481 -0.9988
vn -0.4613 -0.8598 -0.2190
vn -0.4613 -0.8598 0.2190
vn 0.0060 0.8850 -0.4655
vn -0.0060 0.8850 -0.4655
vn -0.0000 1.0000 -0.0000
vn 0.8670 -0.4973 -0.0318
vn 0.4613 -0.8598 -0.2190
vn 0.0122 -0.0754 0.9971
vn 0.0127 0.0481 0.9988
vn -0.0127 0.0481 0.9988
vn -0.0123 -0.0754 0.9971
vn -0.0060 0.8850 0.4656
vn 0.0060 0.8850 0.4656
vn 0.4613 -0.8598 0.2190
vn 0.8670 -0.4973 0.0318
vn -0.0762 0.4170 -0.9057
vn 0.0763 0.4169 -0.9057
vn 0.0713 -0.3803 -0.9221
vn -0.0713 -0.3803 -0.9221
vn 0.9631 0.2666 -0.0367
vn 0.9628 0.2677 0.0367
vn 0.9117 -0.4096 0.0316
vn 0.9117 -0.4096 -0.0316
vn -0.3776 -0.9114 0.1634
vn -0.3801 -0.9097 0.1673
vn -0.9117 -0.4096 0.0316
vn -0.9117 -0.4096 -0.0316
vn -0.3802 -0.9097 -0.1673
vn -0.3776 -0.9114 -0.1634
vn 0.0455 0.9987 -0.0208
vn -0.0455 0.9987 -0.0209
vn -0.0452 0.9988 0.0207
vn 0.0452 0.9988 0.0207
vn -0.9631 0.2666 -0.0367
vn -0.9628 0.2677 0.0367
vn -0.0746 0.4573 0.8862
vn -0.0713 -0.3803 0.9221
vn 0.0713 -0.3803 0.9221
vn 0.0746 0.4573 0.8862
vn 0.3802 -0.9097 -0.1672
vn 0.3776 -0.9114 -0.1634
vn 0.3802 -0.9097 0.1673
vn 0.3776 -0.9114 0.1634
vn 0.9556 0.2946 0.0007
vn 0.9875 0.1574 -0.0006
vn 0.9876 0.1569 -0.0006
vn -0.9909 0.1342 -0.0014
vn -0.9907 0.1358 -0.0014
vn -0.9903 0.1389 -0.0014
vn -0.9409 0.3388 -0.0011
vn -0.9899 0.1421 -0.0014
vn -0.9403 0.3404 -0.0011
vn -0.9894 0.1452 -0.0014
vn -0.9397 0.3421 -0.0011
vn 0.9892 0.1462 -0.0043
vn 0.9892 0.1463 -0.0073
vn 0.9702 0.2424 -0.0009
vn 0.9702 0.2424 -0.0010
vn 0.9702 0.2424 0.0008
vn 0.9997 0.0225 0.0006
vn 0.9998 0.0211 0.0006
vn 0.9997 0.0264 0.0006
vn 0.9997 0.0251 0.0006
vn 0.9996 0.0271 0.0006
vn 0.9998 0.0205 0.0006
vn 0.9997 0.0238 0.0006
vn 1.0000 0.0086 -0.0012
vn 1.0000 -0.0000 -0.0000
vn -0.0000 0.0033 1.0000
vn -0.0000 -1.0000 -0.0000
vn -0.0000 0.0033 -1.0000
vt 0.617558 0.325583
vt 0.617569 0.325606
vt 0.617558 0.325600
vt 0.617578 0.325606
vt 0.617573 0.325601
vt 0.617574 0.325606
vt 0.617558 0.325590
vt 0.617558 0.325593
vt 0.617558 0.325597
vt 0.617554 0.325584
vt 0.617569 0.325601
vt 0.617554 0.325600
vt 0.617578 0.325601
vt 0.617573 0.325606
vt 0.617574 0.325601
vt 0.617553 0.325590
vt 0.617553 0.325594
vt 0.617554 0.325597
vt 0.846816 0.245796
vt 0.846816 0.245794
vt 0.846815 0.245813
vt 0.846814 0.245801
vt 0.846828 0.245794
vt 0.846815 0.245796
vt 0.846795 0.245819
vt 0.846831 0.245818
vt 0.846814 0.245799
vt 0.846811 0.245766
vt 0.846818 0.245819
vt 0.846818 0.245816
vt 0.846820 0.245812
vt 0.846818 0.245801
vt 0.846811 0.245770
vt 0.846824 0.245812
vt 0.846823 0.245801
vt 0.846825 0.245799
vt 0.846812 0.245777
vt 0.846794 0.245782
vt 0.846795 0.245782
vt 0.846828 0.245801
vt 0.846827 0.245799
vt 0.846827 0.245797
vt 0.846831 0.245817
vt 0.846829 0.245816
vt 0.846795 0.245800
vt 0.846815 0.245794
vt 0.846817 0.245779
vt 0.846817 0.245791
vt 0.846816 0.245794
vt 0.846812 0.245766
vt 0.846819 0.245775
vt 0.846819 0.245794
vt 0.846819 0.245773
vt 0.846812 0.245770
vt 0.846829 0.245775
vt 0.846827 0.245795
vt 0.846797 0.245818
vt 0.846814 0.245780
vt 0.846813 0.245779
vt 0.846795 0.245818
vt 0.846795 0.245799
vt 0.846829 0.245796
vt 0.846812 0.245782
vt 0.846816 0.245795
vt 0.846814 0.245797
vt 0.846817 0.245773
vt 0.846815 0.245819
vt 0.617558 0.325586
vt 0.617554 0.325587
vt 0.617573 0.325606
vt 0.617573 0.325601
vt 0.617817 0.326532
vt 0.617806 0.326531
vt 0.617839 0.326554
vt 0.617838 0.326554
vt 0.617803 0.326531
vt 0.617822 0.326554
vt 0.598655 0.138505
vt 0.598780 0.138371
vt 0.598676 0.138505
vt 0.598596 0.138505
vt 0.598774 0.138371
vt 0.598683 0.138371
vt 0.598676 0.138371
vt 0.598575 0.138505
vt 0.617817 0.326547
vt 0.598655 0.138462
vt 0.598655 0.138441
vt 0.617817 0.326543
vt 0.617817 0.326539
vt 0.598655 0.138419
vt 0.617817 0.326535
vt 0.598655 0.138398
vt 0.617803 0.326535
vt 0.598577 0.138396
vt 0.617803 0.326539
vt 0.598576 0.138418
vt 0.598576 0.138440
vt 0.617803 0.326543
vt 0.617803 0.326547
vt 0.598575 0.138462
vt 0.598676 0.138393
vt 0.598575 0.138484
vt 0.617803 0.326551
vt 0.598596 0.138397
vt 0.617806 0.326535
vt 0.598596 0.138418
vt 0.617806 0.326539
vt 0.598596 0.138440
vt 0.617806 0.326543
vt 0.617824 0.326554
vt 0.598723 0.138371
vt 0.617806 0.326547
vt 0.598596 0.138462
vt 0.598596 0.138484
vt 0.617806 0.326551
vt 0.774615 0.389286
vt 0.774542 0.389220
vt 0.774598 0.389253
vt 0.774598 0.389285
vt 0.774598 0.389285
vt 0.774598 0.389284
vt 0.774617 0.389285
vt 0.774616 0.389286
vt 0.774589 0.389253
vt 0.774549 0.389220
vt 0.774533 0.389220
vt 0.774649 0.389286
vt 0.774648 0.389285
vt 0.774589 0.389285
vt 0.774589 0.389285
vt 0.774607 0.389284
vt 0.774542 0.389286
vt 0.774607 0.389285
vt 0.774583 0.389353
vt 0.774607 0.389253
vt 0.774583 0.389352
vt 0.774607 0.389252
vt 0.774583 0.389352
vt 0.774617 0.389352
vt 0.774616 0.389352
vt 0.774598 0.389285
vt 0.774549 0.389286
vt 0.774533 0.389286
vt 0.774649 0.389352
vt 0.774648 0.389352
vt 0.774649 0.389352
vt 0.774599 0.389252
vt 0.774649 0.389353
vt 0.774598 0.389253
vt 0.846716 0.245825
vt 0.846687 0.245825
vt 0.846721 0.245893
vt 0.846753 0.245893
vt 0.846716 0.245893
vt 0.846687 0.245893
vt 0.846799 0.245757
vt 0.846685 0.245821
vt 0.846719 0.245824
vt 0.846721 0.245825
vt 0.846692 0.245749
vt 0.846799 0.245786
vt 0.846692 0.245746
vt 0.846753 0.245825
vt 0.846797 0.245783
vt 0.846690 0.245818
vt 0.846797 0.245786
vt 0.846690 0.245821
vt 0.846799 0.245785
vt 0.846797 0.245780
vt 0.846697 0.245746
vt 0.846698 0.245749
vt 0.846685 0.245824
vt 0.846799 0.245781
vt 0.846683 0.245749
vt 0.846804 0.245786
vt 0.846719 0.245894
vt 0.846722 0.245897
vt 0.846804 0.245790
vt 0.846803 0.245819
vt 0.846692 0.245821
vt 0.846692 0.245818
vt 0.846716 0.245897
vt 0.846799 0.245790
vt 0.846689 0.245748
vt 0.846719 0.245894
vt 0.846798 0.245786
vt 0.846717 0.245895
vt 0.846797 0.245788
vt 0.846698 0.245818
vt 0.846697 0.245821
vt 0.846685 0.245895
vt 0.846775 0.245781
vt 0.598655 0.138484
vt 0.617817 0.326551
vt 0.598676 0.138396
vt 0.617839 0.326550
vt 0.598780 0.138480
vt 0.598676 0.138418
vt 0.598780 0.138458
vt 0.617839 0.326546
vt 0.598676 0.138440
vt 0.617839 0.326542
vt 0.598780 0.138437
vt 0.598676 0.138462
vt 0.598780 0.138415
vt 0.617839 0.326539
vt 0.598780 0.138393
vt 0.598676 0.138483
vt 0.617839 0.326535
vt 0.617838 0.326550
vt 0.598774 0.138481
vt 0.598774 0.138459
vt 0.617838 0.326546
vt 0.617838 0.326543
vt 0.598774 0.138437
vt 0.598774 0.138415
vt 0.617838 0.326539
vt 0.598774 0.138393
vt 0.617838 0.326535
vt 0.598682 0.138480
vt 0.617822 0.326550
vt 0.598570 0.138396
vt 0.598682 0.138458
vt 0.617802 0.326539
vt 0.598570 0.138418
vt 0.598569 0.138440
vt 0.598682 0.138437
vt 0.617802 0.326543
vt 0.598569 0.138462
vt 0.598682 0.138415
vt 0.617822 0.326539
vt 0.598683 0.138393
vt 0.617822 0.326535
vt 0.598699 0.138480
vt 0.617825 0.326550
vt 0.617826 0.326546
vt 0.598704 0.138458
vt 0.617827 0.326542
vt 0.598708 0.138436
vt 0.617827 0.326539
vt 0.598713 0.138415
vt 0.617828 0.326535
vt 0.598718 0.138393
vt 0.617806 0.326531
vt 0.598596 0.138505
vt 0.598596 0.138397
vt 0.617806 0.326535
vt 0.598596 0.138418
vt 0.617806 0.326539
vt 0.617806 0.326543
vt 0.598596 0.138440
vt 0.617806 0.326547
vt 0.598596 0.138462
vt 0.617806 0.326551
vt 0.598596 0.138484
vt 0.617573 0.325601
vt 0.617573 0.325606
vt 0.617806 0.326531
vt 0.598596 0.138505
vt 0.598596 0.138397
vt 0.617806 0.326535
vt 0.598596 0.138418
vt 0.617806 0.326539
vt 0.617806 0.326543
vt 0.598596 0.138440
vt 0.617806 0.326547
vt 0.598596 0.138462
vt 0.617806 0.326551
vt 0.598596 0.138484
vt 0.774541 0.389219
vt 0.774550 0.389219
vt 0.774541 0.389286
vt 0.774550 0.389287
vt 0.850939 0.120451
vt 0.774542 0.389220
vt 0.850934 0.120451
vt 0.774549 0.389220
vt 0.850939 0.120406
vt 0.774542 0.389286
vt 0.850934 0.120406
vt 0.774549 0.389286
s 1
usemtl Material
f 99/115/1 183/256/2 178/246/3 80/81/4
f 4/4/5 13/13/6 12/12/7 3/3/7
f 8/8/8 17/17/9 16/16/10 7/7/11
f 9/9/12 18/18/12 17/17/9 8/8/8
f 6/6/13 15/15/13 13/13/6 4/4/5
f 1/1/14 10/10/14 11/11/15 2/2/15
f 3/3/7 12/12/7 18/18/12 9/9/12
f 68/68/16 69/69/17 10/10/14 1/1/14
f 21/21/18 31/31/19 30/30/20 20/20/21
f 27/27/22 32/32/23 22/22/24
f 53/53/25 66/66/26 67/67/27 29/29/28
f 22/22/29 48/48/30 49/49/31 27/27/32
f 65/65/33 64/64/34 50/50/35 28/28/35
f 29/29/28 38/38/36 39/39/37 53/53/25
f 47/47/38 51/51/39 52/52/40 48/48/30
f 65/65/41 28/28/42 33/33/43 32/32/23
f 44/44/44 40/40/45 45/45/46 43/43/47
f 36/36/48 32/32/23 33/33/43 37/37/49
f 56/56/50 37/37/49 33/33/43 54/54/51
f 55/55/52 51/51/39 53/53/25 39/39/37
f 29/29/28 30/30/20 44/44/44 38/38/36
f 34/34/53 35/35/54 40/40/45 44/44/44
f 31/31/19 32/32/23 35/35/54 34/34/53
f 54/54/51 52/52/40 23/23/55 56/56/50
f 40/40/45 35/35/54 36/36/48 41/41/56
f 55/55/52 39/39/37 57/57/57
f 41/41/56 36/36/48 37/37/49 42/42/58
f 23/23/55 55/55/52 57/57/57 58/58/59
f 45/45/46 40/40/45 41/41/56
f 26/26/60 38/38/36 44/44/44
f 41/41/56 62/62/61 45/45/46
f 59/59/62 42/42/63 37/37/49 56/56/50
f 58/58/59 57/57/57 60/60/64 61/61/65
f 61/61/65 60/60/64 43/43/47 45/45/46
f 20/20/66 46/46/67 47/47/38 21/21/68
f 21/21/68 47/47/38 48/48/30 22/22/29
f 46/46/67 51/51/39 47/47/38
f 27/27/32 49/49/31 64/64/34 65/65/33
f 30/30/20 31/31/19 34/34/53 44/44/44
f 56/56/50 23/23/55 58/58/59 59/59/62
f 23/23/55 52/52/40 51/51/39 55/55/52
f 66/66/26 24/24/69 19/19/69 67/67/27
f 48/48/30 52/52/40 49/49/31
f 32/32/23 36/36/48 35/35/54
f 46/46/67 24/24/70 66/66/71 51/51/39
f 39/39/37 38/38/36 26/26/72 25/25/73
f 39/39/37 25/25/73 57/57/57
f 60/60/64 25/25/73 26/26/60 43/43/47
f 63/63/74 62/62/74 42/42/63 59/59/62
f 62/62/61 63/63/75 61/61/65 45/45/46
f 26/26/60 44/44/44 43/43/47
f 25/25/73 60/60/64 57/57/57
f 61/61/65 63/63/76 58/58/59
f 42/42/58 62/62/61 41/41/56
f 58/58/59 63/63/76 59/59/62
f 54/54/51 50/50/77 64/64/34 52/52/40
f 65/65/41 32/32/23 27/27/22
f 52/52/40 64/64/34 49/49/31
f 30/30/20 67/67/27 19/19/78 20/20/21
f 66/66/71 53/53/25 51/51/39
f 54/54/51 33/33/43 28/28/79 50/50/77
f 29/29/28 67/67/27 30/30/20
f 20/20/66 19/19/80 24/24/70 46/46/67
f 31/31/19 21/21/18 22/22/24 32/32/23
f 7/7/11 16/16/10 69/69/17 68/68/16
f 98/113/81 182/253/82 183/255/2 99/116/1
f 171/234/83 176/243/84 175/241/85 170/232/86
f 169/229/87 174/239/88 173/237/89 168/225/90
f 96/111/91 172/236/92 162/211/93 75/75/94
f 173/237/89 174/239/88 164/215/95 163/214/96
f 175/241/85 176/243/84 166/220/97 165/218/98
f 161/208/99 166/219/97 81/82/100 79/79/101
f 91/101/102 170/230/86 169/227/87 90/98/103
f 157/197/104 87/92/105 72/72/106 74/74/107
f 83/84/108 82/83/109 171/233/83 92/102/110
f 93/106/111 88/94/112 76/76/113 73/73/114
f 174/240/88 175/242/85 165/217/98 164/216/95
f 88/94/112 167/222/115 77/77/116 76/76/113
f 172/235/92 173/238/89 163/213/96 162/212/93
f 176/244/84 97/112/117 81/82/100 166/219/97
f 168/224/90 173/238/89 172/235/92 167/221/115
f 167/222/115 172/236/92 96/111/91 77/77/116
f 170/231/86 175/242/85 174/240/88 169/228/87
f 82/83/109 97/112/117 176/244/84 171/233/83
f 124/144/118 110/127/119 112/130/120 126/148/121
f 112/130/120 104/121/122 118/138/123 126/148/121
f 194/272/124 107/124/125 121/141/126 196/274/127
f 102/119/128 103/120/129 113/131/130 108/125/131
f 104/121/122 105/122/132 119/139/133 118/137/123
f 107/124/125 106/123/134 111/129/135 110/128/119
f 106/123/134 108/125/131 113/131/130 111/129/135
f 115/133/136 101/118/136 197/276/136 199/280/136
f 107/124/125 110/128/119 124/145/118 121/141/126
f 105/122/132 104/121/122 103/120/129
f 102/119/128 193/271/137 100/117/138
f 194/272/124 108/125/131 106/123/134 107/124/125
f 110/128/119 111/129/135 113/131/130 112/130/120
f 108/125/131 194/272/124 193/271/137 102/119/128
f 103/120/129 104/121/122 112/130/120 113/131/130
f 100/117/138 105/122/132 103/120/129 102/119/128
f 116/134/139 122/142/140 127/150/141 117/136/142
f 121/141/126 124/145/118 125/146/143 120/140/144
f 120/140/144 125/146/143 127/149/141 122/142/140
f 119/139/133 117/135/142 118/137/123
f 116/134/139 114/132/145 195/273/146
f 196/274/127 121/141/126 120/140/144 122/142/140
f 124/145/118 126/147/121 127/149/141 125/146/143
f 122/142/140 116/134/139 195/273/146 196/274/127
f 117/136/142 127/150/141 126/148/121 118/138/123
f 114/132/145 116/134/139 117/136/142 119/139/133
f 114/132/145 100/117/138 193/271/137 195/273/146
f 138/162/147 134/157/148 141/167/149 143/170/150
f 135/159/151 146/175/152 151/185/153 140/166/154
f 133/156/155 155/192/156 153/190/157 144/172/158 145/173/159 129/152/160
f 136/160/161 134/158/148 138/163/147 139/164/162
f 136/160/161 139/164/162 131/154/163 130/153/164
f 131/154/163 139/164/162 137/161/165 149/182/166
f 148/180/167 154/191/168 150/184/169 147/179/170
f 129/152/160 145/173/159 143/171/150 141/168/149 142/169/171 128/151/172
f 140/166/154 151/186/153 152/188/173 132/155/174 128/151/172 142/169/171
f 130/153/164 131/154/163 148/181/167 147/178/170
f 133/156/155 132/155/174 152/188/173 150/183/169 154/191/168 155/192/156
f 144/172/158 153/190/157 149/182/166 137/161/165
f 134/158/148 136/160/161 135/159/151
f 137/161/165 139/164/162 138/163/147
f 140/165/154 142/169/171 141/167/149
f 143/170/150 145/174/159 144/172/158
f 146/176/152 130/153/164 147/179/170
f 148/181/167 131/154/163 149/182/166
f 150/184/169 152/189/173 151/187/153
f 153/190/157 155/193/156 154/191/168
f 134/158/148 135/159/151 140/166/154 141/168/149
f 143/171/150 144/172/158 137/161/165 138/163/147
f 146/176/152 147/179/170 150/184/169 151/187/153
f 153/190/157 154/191/168 148/181/167 149/182/166
f 136/160/161 130/153/164 146/177/152 135/159/151
f 92/104/110 171/234/83 170/232/86 91/100/102
f 90/99/103 169/229/87 168/225/90 89/96/175
f 89/97/175 168/226/90 167/223/115 88/95/112
f 80/81/4 83/85/108 92/103/110 99/115/1
f 99/116/1 92/104/110 91/100/102 98/113/81
f 98/114/81 91/101/102 90/98/103 95/109/176
f 95/110/176 90/99/103 89/96/175 94/108/177
f 94/107/177 89/97/175 88/95/112 93/105/111
f 79/80/101 78/78/178 156/194/179 161/209/99
f 161/210/99 156/195/179 84/86/180 160/207/181
f 160/205/181 84/87/180 85/88/182 159/202/183
f 159/203/183 85/89/182 86/90/184 158/201/185
f 158/199/185 86/91/184 87/93/105 157/196/104
f 74/74/107 75/75/94 162/211/93 157/197/104
f 157/198/104 162/212/93 163/213/96 158/200/185
f 158/201/185 163/214/96 164/215/95 159/203/183
f 159/204/183 164/216/95 165/217/98 160/206/181
f 160/207/181 165/218/98 166/220/97 161/210/99
f 2/2/15 11/11/15 71/71/186 70/70/187
f 93/105/111 179/247/82 180/249/2 94/107/177
f 71/71/186 5/5/188 14/14/189 70/70/187
f 95/109/176 181/252/2 182/254/82 98/114/81
f 73/73/114 177/245/190 179/248/82 93/106/111
f 94/108/177 180/250/2 181/251/2 95/110/176
f 182/253/82 191/267/191 192/269/192 183/255/2
f 179/247/82 188/261/193 189/263/194 180/249/2
f 177/245/190 186/259/195 188/262/193 179/248/82
f 183/256/2 192/270/192 187/260/196 178/246/3
f 180/250/2 189/264/194 190/265/197 181/251/2
f 5/5/188 184/257/198 185/258/198 14/14/189
f 181/252/2 190/266/197 191/268/191 182/254/82
f 109/126/199 101/118/199 193/271/137 194/272/124
f 115/133/199 123/143/199 196/274/127 195/273/146
f 101/118/199 115/133/199 195/273/146 193/271/137
f 123/143/199 109/126/199 194/272/124 196/274/127
f 197/275/199 198/277/199 200/281/199 199/279/199
f 101/118/200 109/126/200 198/278/200 197/276/200
f 109/126/201 123/143/201 200/282/201 198/278/201
f 123/143/202 115/133/202 199/280/202 200/282/202
f 119/139/201 105/122/201 100/117/201 114/132/201
