# Blender 3.3.1
# www.blender.org
mtllib kitchen_table_001.mtl
o kitchen_table_001
v 1.075109 0.916245 -0.210779
v 0.590319 0.916245 0.221956
v 1.075109 0.870218 -0.210779
v 1.075109 0.870218 0.221956
v 0.590319 0.870218 0.221956
v 0.590319 0.870218 -0.210779
v 1.075109 0.916245 0.221956
v 0.590319 0.916245 -0.210779
v 1.075109 0.848456 0.076952
v 1.075109 0.848456 -0.065774
v 0.590319 0.848456 0.076952
v 0.590319 0.848456 -0.065774
v 1.035515 0.722094 0.005465
v 0.987994 0.722094 -0.042056
v 0.987994 0.722094 0.052987
v 0.940473 0.722094 0.005465
v 1.154382 0.912478 -0.191009
v 1.137948 0.993043 -0.179636
v 1.132937 0.912478 -0.221999
v 1.116503 0.993043 -0.210629
v 1.118470 0.910874 -0.166160
v 1.103152 0.986243 -0.155561
v 1.097025 0.910874 -0.197151
v 1.081708 0.986243 -0.186551
v -0.047513 0.909388 -0.345843
v -0.685740 0.909388 -0.345843
v -0.047513 0.909388 0.364358
v -0.685740 0.909388 0.364358
v 1.288713 0.888170 -0.239255
v 1.075109 0.916245 -0.210779
v 1.288713 0.888170 0.250432
v 1.075109 0.916245 0.221956
v 0.561842 0.888170 -0.239255
v 0.590319 0.916245 -0.210779
v 0.561843 0.888170 0.250432
v 0.590319 0.916245 0.221956
v 1.288713 0.916245 -0.239255
v 1.288713 0.916245 0.250432
v 0.561843 0.916245 0.250432
v 0.561842 0.916245 -0.239255
v 0.987994 0.723131 0.040488
v 0.957668 0.723131 0.022979
v 0.957668 0.723131 -0.012040
v 0.987994 0.723131 -0.029548
v 1.018322 0.723131 -0.012040
v 1.018322 0.723131 0.022979
v 0.940466 0.723131 0.032910
v 0.987994 0.723131 0.060352
v 0.940466 0.723131 -0.021971
v 0.987994 0.723131 -0.049411
v 1.035524 0.723131 -0.021971
v 1.035524 0.723131 0.032910
v 1.074057 0.878299 0.027865
v 1.074057 0.878299 -0.016933
v 1.074057 0.861437 0.027865
v 1.074057 0.861437 -0.016933
v 1.121994 0.950592 -0.175945
v 0.999357 1.000197 -0.091084
v 0.970586 0.986597 -0.071175
v 1.107423 0.950592 -0.196999
v 0.984786 1.000197 -0.112140
v 0.956016 0.986597 -0.092234
v 1.118243 0.937890 -0.173347
v 0.999669 0.985852 -0.091300
v 0.974886 0.974137 -0.074153
v 1.103672 0.937890 -0.194404
v 0.985099 0.985852 -0.112357
v 0.960316 0.974137 -0.095209
v 0.683845 0.477424 0.419469
v 0.111310 0.477424 0.419470
v 0.683846 0.658090 0.419470
v 0.111311 0.658090 0.419470
v 0.111311 0.658090 0.391892
v 0.683846 0.658090 0.391892
v -0.688235 0.845601 0.419470
v -0.051860 0.845601 0.419470
v -0.688235 0.242488 0.419471
v -0.051861 0.242488 0.419471
v -0.051861 0.323944 0.419470
v -0.688235 0.323943 0.419471
v -0.051860 0.708923 0.419470
v -0.688235 0.708923 0.419470
v -0.230979 0.739498 0.419470
v -0.509116 0.739498 0.419470
v -0.230979 0.815028 0.419470
v -0.509116 0.815028 0.419470
v 1.133498 0.998534 -0.183989
v 1.119008 0.998534 -0.204932
v 1.059663 1.035781 -0.132898
v 1.045172 1.035781 -0.153840
v 1.105301 1.007833 -0.164477
v 1.090811 1.007833 -0.185420
v 1.058230 1.031579 -0.131907
v 1.043739 1.031579 -0.152848
v 1.130588 0.985484 -0.181975
v 1.102165 0.983565 -0.162308
v 1.087675 0.983565 -0.183249
v 1.101998 0.996679 -0.162191
v 1.087507 0.996679 -0.183135
v 1.116097 0.985484 -0.202917
v -0.447687 0.221721 0.415103
v -0.285448 0.221721 0.415103
v -0.447687 0.234326 0.415103
v -0.285448 0.234326 0.415103
v -0.447687 0.221721 0.432415
v -0.285448 0.221721 0.432415
v -0.447687 0.234326 0.432415
v -0.285448 0.234326 0.432415
v 0.316459 0.454455 0.415103
v 0.478698 0.454455 0.415103
v 0.316459 0.467060 0.415103
v 0.478698 0.467060 0.415103
v 0.316459 0.454455 0.432415
v 0.478698 0.454455 0.432415
v 0.316459 0.467060 0.432415
v 0.478698 0.467060 0.432415
v -0.047834 0.845601 0.419470
v 0.107284 0.845601 0.419470
v -0.047835 0.104035 0.419471
v 0.107283 0.104035 0.419471
v -1.267138 0.100307 0.419471
v -1.267138 -0.000000 0.419471
v 1.263095 0.100307 0.419470
v 1.263095 0.000000 0.419470
v 0.478698 0.840119 0.432415
v 0.316459 0.840119 0.432415
v 0.478698 0.828177 0.432415
v 0.316459 0.828177 0.432415
v 0.478698 0.840119 0.415103
v 0.316459 0.840119 0.415103
v 0.478698 0.828177 0.415103
v 0.316459 0.828177 0.415103
v 0.683846 0.845601 0.419470
v 0.111312 0.845601 0.419470
v 0.683846 0.664937 0.419469
v 0.111311 0.664937 0.419470
v 0.478698 0.640640 0.432415
v 0.316458 0.640640 0.432415
v 0.478698 0.652633 0.432415
v 0.316459 0.652633 0.432415
v 0.478698 0.640640 0.415100
v 0.316458 0.640640 0.415100
v 0.316459 0.652633 0.415103
v 0.478698 0.652633 0.415103
v 0.689408 0.104035 0.419470
v 1.260218 0.104035 0.419470
v 0.689407 0.845601 0.419470
v 1.260219 0.845601 0.419470
v -1.281008 0.905769 0.433802
v -1.281008 0.905769 -0.419468
v -1.281008 0.845026 0.433802
v 1.320173 0.905769 0.433801
v 1.320173 0.905769 -0.419468
v 1.320173 0.845027 0.433801
v 0.586597 0.905770 -0.236467
v 1.268531 0.905770 -0.236466
v 0.586597 0.905769 0.250801
v 1.268531 0.905769 0.250802
v -1.281008 0.845026 -0.419468
v 1.320173 0.845026 -0.419469
v 0.882863 0.839497 0.432415
v 1.060793 0.839497 0.432415
v 1.060792 0.826958 0.432415
v 0.882863 0.826958 0.432415
v 1.060793 0.839497 0.415103
v 0.882863 0.839497 0.415103
v 1.060792 0.826958 0.415100
v 0.882863 0.826958 0.415100
v -0.651304 0.640354 0.415103
v -0.081832 0.640354 0.415103
v -0.651304 0.671025 0.415103
v -0.081832 0.671025 0.415103
v -0.651304 0.640354 0.432415
v -0.081832 0.640354 0.432415
v -0.651304 0.671025 0.432415
v -0.081832 0.671025 0.432415
v -0.688235 0.239895 0.419471
v -0.051860 0.239895 0.419471
v -0.688235 0.104034 0.419471
v -0.051861 0.104035 0.419471
v -0.886905 0.839496 0.432415
v -1.064835 0.839496 0.432415
v -1.064835 0.826958 0.432415
v -0.886905 0.826958 0.432415
v -1.064835 0.839496 0.415100
v -0.886905 0.839496 0.415103
v -1.064835 0.826958 0.415100
v -0.886905 0.826958 0.415103
v -0.689464 0.104034 0.419471
v -1.264260 0.104034 0.419471
v -0.689464 0.845601 0.419470
v -1.264261 0.845601 0.419470
v -1.287891 -0.000000 0.433802
v -1.287892 0.845585 0.433802
v -1.287892 -0.000000 -0.419471
v -1.287892 0.845585 -0.419470
v -1.257235 -0.000000 0.433802
v -1.257235 0.845585 0.433802
v -1.257235 0.845585 -0.405097
v -1.257235 -0.000000 -0.405097
v 0.111312 0.472210 0.391892
v 0.683846 0.472210 0.391892
v 0.111312 0.472210 0.419470
v 0.683847 0.472210 0.419470
v 0.111311 0.104035 0.419471
v 0.683845 0.104035 0.419470
v 1.261280 0.000000 0.433802
v 1.261280 0.845586 0.433801
v 1.261279 0.000000 -0.405099
v 1.261279 0.845586 -0.405098
v 1.291936 0.000000 0.433802
v 1.291936 0.845586 0.433801
v 1.291936 0.845586 -0.419470
v 1.291936 0.000000 -0.419470
vn -0.0000 0.9889 0.1484
vn 1.0000 -0.0000 -0.0000
vn -1.0000 -0.0000 -0.0000
vn -0.0000 -0.0000 1.0000
vn -0.0000 -0.0000 -1.0000
vn -0.0000 0.9889 -0.1484
vn -0.0000 1.0000 -0.0000
vn 0.7981 0.2408 -0.5523
vn -0.7983 -0.2399 0.5524
vn 0.5690 -0.0000 0.8223
vn -0.5690 -0.0000 -0.8223
vn -0.1305 0.9873 0.0903
vn 0.2595 0.9489 -0.1796
vn -0.2979 0.9321 0.2062
vn 0.5690 0.0001 0.8223
vn 0.5690 -0.0001 0.8223
vn -0.7583 -0.3870 0.5247
vn 0.3151 0.9237 -0.2180
vn -0.3151 -0.9237 0.2180
vn -0.5691 -0.0001 -0.8223
vn -0.7596 0.3831 0.5256
vn -0.8222 -0.0156 0.5689
vn -0.5690 -0.0001 -0.8223
vn 0.7937 -0.2618 -0.5492
vn -0.7737 0.3388 0.5353
vn -1.0000 0.0001 -0.0000
vn -0.0000 -1.0000 -0.0000
vt 0.860376 0.513377
vt 0.860375 0.513377
vt 0.860376 0.513379
vt 0.860377 0.513379
vt 0.860377 0.513381
vt 0.860376 0.513379
vt 0.860376 0.513379
vt 0.860375 0.513379
vt 0.860377 0.513379
vt 0.860378 0.513379
vt 0.860377 0.513381
vt 0.860378 0.513381
vt 0.897278 0.559489
vt 0.897278 0.559489
vt 0.897278 0.559489
vt 0.897277 0.559489
vt 0.883697 0.421907
vt 0.883693 0.421906
vt 0.883696 0.421907
vt 0.883694 0.421906
vt 0.883697 0.421907
vt 0.883693 0.421907
vt 0.883696 0.421907
vt 0.883693 0.421907
vt 0.873087 0.868348
vt 0.881448 0.868348
vt 0.873087 0.876709
vt 0.881448 0.876709
vt 0.860609 0.511990
vt 0.859862 0.512423
vt 0.859859 0.512409
vt 0.860538 0.511990
vt 0.859862 0.512404
vt 0.859860 0.512409
vt 0.859863 0.512404
vt 0.860609 0.512842
vt 0.859859 0.512409
vt 0.860538 0.512842
vt 0.859863 0.512423
vt 0.859860 0.512409
vt 0.860576 0.511990
vt 0.859861 0.512423
vt 0.860571 0.511990
vt 0.859861 0.512404
vt 0.860571 0.512842
vt 0.859860 0.512409
vt 0.860576 0.512842
vt 0.859859 0.512409
vt 0.883695 0.419130
vt 0.883695 0.419130
vt 0.883695 0.419130
vt 0.883695 0.419131
vt 0.883696 0.419130
vt 0.883696 0.419130
vt 0.883695 0.419130
vt 0.883695 0.419130
vt 0.883695 0.419130
vt 0.883695 0.419131
vt 0.883696 0.419130
vt 0.883696 0.419130
vt 0.871877 0.670030
vt 0.871877 0.670030
vt 0.871877 0.670030
vt 0.871877 0.670030
vt 0.883697 0.421909
vt 0.883696 0.421908
vt 0.883694 0.421909
vt 0.883695 0.421907
vt 0.883694 0.421908
vt 0.883694 0.421908
vt 0.883697 0.421909
vt 0.883696 0.421908
vt 0.883694 0.421909
vt 0.883695 0.421907
vt 0.883694 0.421908
vt 0.883694 0.421908
vt 0.236293 0.128253
vt 0.236293 0.128721
vt 0.236441 0.128253
vt 0.896233 0.792599
vt 0.236441 0.128721
vt 0.896233 0.792914
vt 0.896248 0.792914
vt 0.896248 0.792599
vt 0.860374 0.513216
vt 0.860374 0.513215
vt 0.860373 0.513008
vt 0.860373 0.513007
vt 0.860373 0.513007
vt 0.873074 0.865781
vt 0.860373 0.513008
vt 0.873074 0.866436
vt 0.873470 0.865781
vt 0.860374 0.513215
vt 0.873470 0.866436
vt 0.860374 0.513216
vt 0.897270 0.560101
vt 0.860374 0.513215
vt 0.897270 0.560102
vt 0.860374 0.513215
vt 0.897270 0.560101
vt 0.860374 0.513215
vt 0.897270 0.560102
vt 0.860374 0.513215
vt 0.883695 0.421907
vt 0.883695 0.421907
vt 0.883694 0.421906
vt 0.883695 0.421907
vt 0.883695 0.421907
vt 0.883695 0.421907
vt 0.883695 0.421906
vt 0.883695 0.421907
vt 0.883695 0.421907
vt 0.883695 0.421907
vt 0.883696 0.421907
vt 0.883696 0.421907
vt 0.883696 0.421907
vt 0.883695 0.421907
vt 0.860370 0.512430
vt 0.860370 0.512430
vt 0.860376 0.512430
vt 0.860370 0.512430
vt 0.860373 0.512430
vt 0.860373 0.512429
vt 0.860376 0.512430
vt 0.860376 0.512429
vt 0.860370 0.512430
vt 0.860370 0.512430
vt 0.860374 0.512430
vt 0.860369 0.512430
vt 0.860371 0.512430
vt 0.860371 0.512429
vt 0.860373 0.512430
vt 0.860373 0.512429
vt 0.234793 0.131293
vt 0.234920 0.131293
vt 0.234793 0.130687
vt 0.234920 0.130687
vt 0.896253 0.795145
vt 0.896197 0.795145
vt 0.896253 0.793346
vt 0.896197 0.793346
vt 0.860373 0.512429
vt 0.860369 0.512430
vt 0.860372 0.512429
vt 0.860372 0.512430
vt 0.860373 0.512429
vt 0.860369 0.512430
vt 0.860369 0.512430
vt 0.860369 0.512430
vt 0.237035 0.128787
vt 0.237035 0.129256
vt 0.236887 0.128787
vt 0.236887 0.129256
vt 0.860373 0.512429
vt 0.860372 0.512430
vt 0.860374 0.512429
vt 0.860369 0.512430
vt 0.860371 0.512430
vt 0.860369 0.512430
vt 0.860369 0.512430
vt 0.860374 0.512429
vt 0.895352 0.794237
vt 0.895667 0.794237
vt 0.895352 0.794646
vt 0.895667 0.794646
vt 0.875400 0.069954
vt 0.874629 0.063887
vt 0.875021 0.069784
vt 0.875397 0.069954
vt 0.868901 0.063887
vt 0.875400 0.069899
vt 0.877590 0.069232
vt 0.876502 0.068039
vt 0.874537 0.069232
vt 0.875397 0.069899
vt 0.875414 0.069954
vt 0.875414 0.069899
vt 0.875400 0.069954
vt 0.875400 0.069899
vt 0.868901 0.069614
vt 0.874537 0.066179
vt 0.860377 0.512430
vt 0.860376 0.512429
vt 0.860376 0.512429
vt 0.860377 0.512430
vt 0.860377 0.512429
vt 0.860377 0.512430
vt 0.860376 0.512429
vt 0.860376 0.512430
vt 0.860381 0.513355
vt 0.860381 0.513355
vt 0.860381 0.513355
vt 0.860381 0.513355
vt 0.860381 0.513341
vt 0.860381 0.513341
vt 0.860381 0.513327
vt 0.860381 0.513327
vt 0.236029 0.131293
vt 0.236029 0.130773
vt 0.235917 0.131293
vt 0.235917 0.130773
vt 0.860377 0.512422
vt 0.860377 0.512431
vt 0.860377 0.512431
vt 0.860377 0.512422
vt 0.860377 0.512431
vt 0.860377 0.512429
vt 0.860377 0.512431
vt 0.860377 0.512429
vt 0.233095 0.129398
vt 0.232628 0.129398
vt 0.233095 0.130005
vt 0.232628 0.130005
vt 0.895692 0.794900
vt 0.895710 0.794655
vt 0.895675 0.795145
vt 0.896180 0.795145
vt 0.896180 0.794655
vt 0.895275 0.794545
vt 0.895692 0.795145
vt 0.898263 0.794436
vt 0.898263 0.791031
vt 0.894858 0.791031
vt 0.896216 0.792914
vt 0.896216 0.792599
vt 0.896201 0.792914
vt 0.236866 0.129256
vt 0.896201 0.792599
vt 0.236866 0.128787
vt 0.236565 0.129256
vt 0.236565 0.128787
vt 0.895692 0.794900
vt 0.895710 0.794655
vt 0.895675 0.795145
vt 0.896180 0.795145
vt 0.896180 0.794655
vt 0.895275 0.794545
vt 0.895692 0.795145
vt 0.898263 0.794436
vt 0.898263 0.791031
vt 0.894858 0.791031
s 1
usemtl Material
f 12/12/1 10/10/1 3/3/1 6/6/1
f 2/2/2 5/5/2 11/11/2
f 1/1/3 3/3/3 10/10/3
f 1/1/4 8/8/4 6/6/4 3/3/4
f 2/2/5 7/7/5 4/4/5 5/5/5
f 7/7/3 9/9/3 4/4/3
f 7/7/3 1/1/3 10/10/3 9/9/3
f 8/8/2 12/12/2 6/6/2
f 8/8/2 2/2/2 11/11/2 12/12/2
f 5/5/6 4/4/6 9/9/6 11/11/6
f 9/9/7 10/10/7 12/12/7 11/11/7
f 13/13/7 14/14/7 16/16/7 15/15/7
f 19/19/8 20/20/8 18/18/8 17/17/8
f 23/23/9 21/21/9 22/22/9 24/24/9
f 17/17/10 18/18/10 22/22/10 21/21/10
f 20/20/11 19/19/11 23/23/11 24/24/11
f 20/20/12 24/24/12 22/22/12 18/18/12
f 25/25/7 26/26/7 28/28/7 27/27/7
f 31/32/4 38/43/4 39/45/4 35/38/4
f 35/39/3 39/46/3 40/48/3 33/35/3
f 33/36/5 40/47/5 37/41/5 29/29/5
f 30/31/7 32/34/7 38/44/7 37/42/7
f 32/34/7 36/40/7 39/46/7 38/44/7
f 36/40/7 34/37/7 40/48/7 39/46/7
f 34/37/7 30/31/7 37/42/7 40/48/7
f 29/30/2 37/42/2 38/44/2 31/33/2
f 41/49/7 42/50/7 47/55/7 48/56/7
f 42/50/7 43/51/7 49/57/7 47/55/7
f 43/51/7 44/52/7 50/58/7 49/57/7
f 44/52/7 45/53/7 51/59/7 50/58/7
f 45/53/7 46/54/7 52/60/7 51/59/7
f 46/54/7 41/49/7 48/56/7 52/60/7
f 53/61/3 54/62/3 56/64/3 55/63/3
f 60/68/13 61/69/13 58/66/13 57/65/13
f 58/66/14 61/69/14 62/70/14 59/67/14
f 57/65/15 58/66/10 64/72/10 63/71/15
f 58/66/10 59/67/16 65/73/16 64/72/10
f 61/69/11 60/68/11 66/74/11 67/75/11
f 62/70/11 61/69/11 67/75/11 68/76/11
f 59/67/17 62/70/17 68/76/17 65/73/17
f 70/78/4 69/77/4 71/79/4 72/81/4
f 71/80/7 74/84/7 73/83/7 72/82/7
f 77/87/4 78/88/4 79/89/4 80/91/4
f 80/92/4 79/90/4 81/93/4 82/95/4
f 84/99/4 83/97/4 85/101/4 86/103/4
f 82/96/4 81/94/4 83/98/4 84/100/4
f 81/94/4 76/86/4 85/102/4 83/98/4
f 76/86/4 75/85/4 86/104/4 85/102/4
f 75/85/4 82/96/4 84/100/4 86/104/4
f 88/106/18 90/108/18 89/107/18 87/105/18
f 92/110/19 91/109/19 93/111/19 94/112/19
f 88/106/11 92/110/11 94/112/20 90/108/20
f 90/108/21 94/112/21 93/111/21 89/107/21
f 89/107/10 93/111/10 91/109/10 87/105/10
f 99/117/22 97/115/22 96/114/22 98/116/22
f 98/116/16 96/114/16 95/113/16
f 100/118/11 97/115/23 99/117/11
f 88/106/11 100/118/11 99/117/11 92/110/11
f 91/109/10 98/116/10 95/113/10 87/105/10
f 87/105/24 95/113/24 100/118/24 88/106/24
f 92/110/25 99/117/25 98/116/25 91/109/25
f 107/125/3 103/121/3 101/119/3 105/123/3
f 108/126/7 104/122/7 103/121/7 107/125/7
f 106/124/2 102/120/2 104/122/2 108/126/2
f 105/123/4 106/124/4 108/126/4 107/125/4
f 115/133/3 111/129/3 109/127/3 113/131/3
f 116/134/7 112/130/7 111/129/7 115/133/7
f 114/132/2 110/128/2 112/130/2 116/134/2
f 113/131/4 114/132/4 116/134/4 115/133/4
f 119/137/4 120/138/4 118/136/4 117/135/4
f 123/141/4 121/139/4 122/140/4 124/142/4
f 128/146/4 127/145/4 125/143/4 126/144/4
f 127/145/2 131/149/2 129/147/2 125/143/2
f 125/143/7 129/147/7 130/148/7 126/144/7
f 126/144/3 130/148/3 132/150/3 128/146/3
f 136/154/4 135/153/4 133/151/4 134/152/4
f 138/156/4 137/155/4 139/157/4 140/158/4
f 137/155/2 141/159/2 144/162/2 139/157/2
f 139/157/7 144/162/7 143/161/7 140/158/7
f 140/158/26 143/161/26 142/160/26 138/156/26
f 145/163/4 146/164/4 148/166/4 147/165/4
f 152/172/4 149/167/4 151/170/4 154/176/4
f 153/174/7 150/169/7 155/177/7 156/178/7
f 150/169/7 149/167/7 157/179/7 155/177/7
f 149/167/7 152/172/7 158/180/7 157/179/7
f 152/172/7 153/174/7 156/178/7 158/180/7
f 151/171/3 149/168/3 150/169/3 159/181/3
f 152/173/2 154/175/2 160/182/2 153/174/2
f 159/181/5 150/169/5 153/174/5 160/182/5
f 160/182/27 154/176/27 151/171/27 159/181/27
f 164/186/4 163/185/4 162/184/4 161/183/4
f 163/185/2 167/189/2 165/187/2 162/184/2
f 162/184/7 165/187/7 166/188/7 161/183/7
f 164/186/27 168/190/27 167/189/27 163/185/27
f 175/197/3 171/193/3 169/191/3 173/195/3
f 176/198/7 172/194/7 171/193/7 175/197/7
f 174/196/2 170/192/2 172/194/2 176/198/2
f 173/195/4 174/196/4 176/198/4 175/197/4
f 179/201/4 180/202/4 178/200/4 177/199/4
f 184/206/4 181/203/4 182/204/4 183/205/4
f 183/205/3 182/204/3 185/207/3 187/209/3
f 182/204/7 181/203/7 186/208/7 185/207/7
f 184/206/27 183/205/27 187/209/27 188/210/27
f 189/211/4 191/213/4 192/214/4 190/212/4
f 193/215/3 194/216/3 196/219/3 195/218/3
f 194/217/4 193/215/4 197/220/4 198/221/4
f 198/222/2 197/220/2 200/224/2 199/223/2
f 201/225/7 203/227/7 204/229/7 202/226/7
f 205/231/4 206/232/4 204/230/4 203/228/4
f 207/233/3 208/234/3 210/237/3 209/236/3
f 208/235/4 207/233/4 211/238/4 212/239/4
f 212/240/2 211/238/2 214/242/2 213/241/2
f 195/218/5 196/219/5 213/241/5 214/242/5
f 131/149/27 127/145/27 128/146/27 132/150/27
f 141/159/27 137/155/27 138/156/27 142/160/27
f 113/131/27 109/127/27 110/128/27 114/132/27
f 161/183/3 166/188/3 168/190/3 164/186/3
f 173/195/27 169/191/27 170/192/27 174/196/27
f 105/123/27 101/119/27 102/120/27 106/124/27
f 186/208/2 181/203/2 184/206/2 188/210/2
f 124/142/27 122/140/27 195/218/27 214/242/27
f 193/215/27 195/218/27 200/224/27 197/220/27
f 207/233/27 209/236/27 214/242/27 211/238/27
